<?xml version="1.0" encoding="UTF-8"?>
<svg id="Logo_s" data-name="Logo&amp;apos;s" xmlns="http://www.w3.org/2000/svg" viewBox="0 0 841.89 297.64">
  <defs>
    <style>
      .cls-1 {
        fill: #1a1a1a;
      }

      .cls-1, .cls-2 {
        stroke-width: 0px;
      }

      .cls-2 {
        fill: #d4ff00;
      }
    </style>
  </defs>
  <g>
    <rect class="cls-2" x="98.53" y="77.95" width="141.73" height="141.73"/>
    <polygon class="cls-1" points="207.07 101.73 207.07 195.91 188.23 195.91 188.23 177.07 131.72 177.07 131.72 120.56 150.56 120.56 150.56 139.4 188.23 139.4 188.23 120.56 169.4 120.56 169.4 101.73 207.07 101.73"/>
  </g>
  <g>
    <path class="cls-1" d="M324.26,129.3c13.51,0,30.13,7.57,31.75,27.02h-12.02c-1.89-12.29-10-16.75-19.73-16.75-15.13,0-22.56,11.08-22.56,24.59s7.43,24.72,22.56,24.72c9.73,0,17.83-4.46,19.73-16.75h12.02c-1.62,19.45-18.24,27.02-31.75,27.02-21.75,0-34.45-15.27-34.45-34.99s12.7-34.86,34.45-34.86"/>
    <path class="cls-1" d="M399.76,188.88c15.27,0,23.64-11.08,23.64-24.72s-8.38-24.59-23.64-24.59-23.78,11.08-23.78,24.59,8.38,24.72,23.78,24.72M399.76,129.3c21.35,0,35.53,15,35.53,34.86s-14.19,34.99-35.53,34.99-35.67-15-35.67-34.99,14.19-34.86,35.67-34.86"/>
    <path class="cls-1" d="M439.18,187.52h18.78v-78.76h-14.05v-10.27h19.05c4.46,0,7.03,2.3,7.03,6.76v82.28h18.78v10.27h-49.58v-10.27Z"/>
    <path class="cls-1" d="M545.57,157.94c-.81-12.16-9.05-19.18-21.08-19.18-11.08,0-19.45,7.03-20.4,19.18h41.47ZM524.5,129.3c19.86,0,32.83,12.02,32.83,32.83v4.32h-53.36c.4,13.1,7.3,23.1,21.21,23.1,11.48,0,18.24-5.94,20.54-15.27h11.89c-2.7,12.43-11.62,24.86-32.29,24.86-21.89,0-32.96-15.94-32.96-35.8,0-21.75,12.97-34.05,32.15-34.05"/>
    <path class="cls-1" d="M600.42,129.3c13.51,0,30.13,7.57,31.75,27.02h-12.02c-1.89-12.29-10-16.75-19.73-16.75-15.13,0-22.56,11.08-22.56,24.59s7.43,24.72,22.56,24.72c9.73,0,17.83-4.46,19.73-16.75h12.02c-1.62,19.45-18.24,27.02-31.75,27.02-21.75,0-34.45-15.27-34.45-34.99s12.7-34.86,34.45-34.86"/>
    <path class="cls-1" d="M686.77,197.79h-26.34c-6.35,0-9.46-2.97-9.46-9.46v-47.42h-14.86v-10.27h14.86v-17.02l12.02-3.65v20.67h21.08v10.27h-21.08v46.74l23.78-.13v10.27Z"/>
    <path class="cls-1" d="M717.55,101.06c5.4,0,9.73,3.78,9.73,9.05s-4.32,9.05-9.73,9.05-9.46-3.78-9.46-9.05,4.19-9.05,9.46-9.05M694.86,187.52h18.64v-46.61h-13.92v-10.27h17.43c4.86,0,7.57,2.3,7.57,7.84v49.04h18.78v10.27h-48.5v-10.27Z"/>
  </g>
</svg>